<?xml version="1.0" standalone="no"?><!DOCTYPE svg PUBLIC "-//W3C//DTD SVG 1.1//EN" "http://www.w3.org/Graphics/SVG/1.1/DTD/svg11.dtd"><svg xmlns="http://www.w3.org/2000/svg" xmlns:xlink="http://www.w3.org/1999/xlink" t="1775833089274" class="icon" viewBox="0 0 1024 1024" version="1.1" p-id="1393" width="200" height="200"><g transform="translate(1024, 0) scale(-1, 1)"><path xmlns="http://www.w3.org/2000/svg" d="M336.149333 936.533333h-4.48c-48.298667 0-88.832 1.109333-128.682666 0.426667a97.984 97.984 0 0 1-93.696-89.002667 338.624 338.624 0 0 1-2.602667-44.586666V178.133333c6.528-67.242667 31.36-92.586667 99.541333-92.586666h626.794667a80.064 80.064 0 0 1 58.453333 19.029333A72.213333 72.213333 0 0 1 916.693333 158.08a694.528 694.528 0 0 1 0 73.045333v620.693334c-0.256 49.408-15.445333 72.789333-53.333333 82.133333-80.426667 2.133333-93.866667 24.192-98.602667-179.413333 1.152-12.928 0-21.077333 0-36.693334l84.608-0.938666a307.434667 307.434667 0 0 0-60.672-78.592 52.586667 52.586667 0 0 1-23.04-41.173334l4.522667-435.861333c-11.52-0.853333-22.016-2.005333-32.341333-2.005333H269.845333c-29.866667 0-32 2.133333-32 32.298666v244.864c39.125333 7.338667 71.68 6.4 93.738667-31.146666a687.125333 687.125333 0 0 1 44.544-55.68 73.130667 73.130667 0 0 1 63.701333-30.933334c51.2 0.682667 102.656-0.213333 153.728 2.432a59.584 59.584 0 0 1 37.504 19.2 545.962667 545.962667 0 0 1 52.48 73.898667 83.669333 83.669333 0 0 1 3.754667 33.408 115.370667 115.370667 0 0 1-30.250667-13.141333 173.866667 173.866667 0 0 1-30.933333-34.730667c-24.832-35.84-61.354667-37.376-99.584-34.517333-14.762667 1.109333-15.445333 9.130667-10.069333 20.266666 10.538667 22.954667 19.712 46.506667 31.872 68.778667a258.773333 258.773333 0 0 1 31.872 147.84c-3.754667 56.96-6.4 52.309333 49.92 52.309333a865.429333 865.429333 0 0 0 93.653333-2.133333c36.096-4.693333 56.021333 13.098667 79.445333 46.293333H562.624a30.314667 30.314667 0 0 1-24.576-6.954666 27.136 27.136 0 0 1-9.386667-22.656q-3.733333-48.725333-9.130666-97.28c-1.194667-11.136-4.010667-22.058667-7.509334-40.746667a294.08 294.08 0 0 0-21.546666 30.037333c-36.096 68.821333-73.813333 136.704-106.410667 206.805334a71.594667 71.594667 0 0 1-85.973333 46.933333 12201.386667 12201.386667 0 0 1 48.042666-97.706667c27.733333-54.997333 54.826667-111.317333 83.413334-166.4a57.856 57.856 0 0 0 0-57.6c-14.506667-27.434667-26.965333-56.576-42.197334-89.088a631.744 631.744 0 0 0-38.4 52.778667 51.2 51.2 0 0 1-46.933333 24.021333c-75.946667 1.322667-64-10.24-64 57.898667-0.426667 90.368-0.426667 180.736 1.450667 271.104a81.536 81.536 0 0 0 17.792 44.544c21.546667 27.392 51.2 51.882667 78.933333 82.346667z m-7.594666-686.698666l-1.152-0.213334a59.008 59.008 0 0 1 61.397333-56.32A58.773333 58.773333 0 0 1 448 251.626667a60.522667 60.522667 0 0 1-60.202667 58.752 59.882667 59.882667 0 0 1-59.306666-60.586667z m-24.32 590.933333c34.432-14.677333 55.765333-10.453333 77.568 15.786667l64.682666 77.738666a78.016 78.016 0 0 1-92.586666-33.152 651.434667 651.434667 0 0 0-49.664-60.330666z m0 0" p-id="1394" fill="#aaaaaa"/></g></svg>